HIERARCHY
ROOT SpineBase
{
  OFFSET 0.000000 0.000000 0.000000
  CHANNELS 6 Xposition Yposition Zposition Zrotation Xrotation Yrotation
  JOINT SpineMid
  {
    OFFSET -0.000000 29.109272 0.000000
    CHANNELS 3 Zrotation Xrotation Yrotation
    JOINT SpineShoulder
    {
      OFFSET 0.281405 21.542367 -0.630011
      CHANNELS 3 Zrotation Xrotation Yrotation
      JOINT Neck
      {
        OFFSET 0.151183 7.102883 -0.508785
        CHANNELS 3 Zrotation Xrotation Yrotation
        JOINT Head
        {
          OFFSET -1.888771 12.139636 4.651025
          CHANNELS 3 Zrotation Xrotation Yrotation
          End Site
          {
            OFFSET 0 0 0
          }
        }
      }
      JOINT ShoulderLeft
      {
        OFFSET 8.327651 -3.412252 -10.082376
        CHANNELS 3 Zrotation Xrotation Yrotation
        JOINT ElbowLeft
        {
          OFFSET 0.103763 -23.952950 -9.104325
          CHANNELS 3 Zrotation Xrotation Yrotation
          JOINT WristLeft
          {
            OFFSET 3.884068 -25.226014 -8.189534
            CHANNELS 3 Zrotation Xrotation Yrotation
            JOINT HandLeft
            {
              OFFSET -5.098050 -0.201750 2.551826
              CHANNELS 3 Zrotation Xrotation Yrotation
              JOINT HandTipLeft
              {
                OFFSET -1.430138 -7.036958 1.724029
                CHANNELS 3 Zrotation Xrotation Yrotation
                End Site
                {
                  OFFSET 0 0 0
                }
              }
              JOINT ThumbLeft
              {
                OFFSET -1.427983 0.094952 -2.460718
                CHANNELS 3 Zrotation Xrotation Yrotation
                End Site
                {
                  OFFSET 0 0 0
                }
              }
            }
          }
        }
      }
      JOINT ShoulderRight
      {
        OFFSET 5.566328 0.003716 -6.193050
        CHANNELS 3 Zrotation Xrotation Yrotation
        JOINT ElbowRight
        {
          OFFSET 0.433808 -23.062894 -9.649496
          CHANNELS 3 Zrotation Xrotation Yrotation
          JOINT WristRight
          {
            OFFSET -2.886030 -21.992869 -4.913725
            CHANNELS 3 Zrotation Xrotation Yrotation
            JOINT HandRight
            {
              OFFSET -0.311057 -7.782301 -0.750039
              CHANNELS 3 Zrotation Xrotation Yrotation
              JOINT HandTipRight
              {
                OFFSET -1.022285 -5.044079 0.042090
                CHANNELS 3 Zrotation Xrotation Yrotation
                End Site
                {
                  OFFSET 0 0 0
                }
              }
              JOINT ThumbRight
              {
                OFFSET 2.371629 1.028699 1.016273
                CHANNELS 3 Zrotation Xrotation Yrotation
                End Site
                {
                  OFFSET 0 0 0
                }
              }
            }
          }
        }
      }
    }
  }
  JOINT HipLeft
  {
    OFFSET 2.333221 0.304668 0.591480
    CHANNELS 3 Zrotation Xrotation Yrotation
    JOINT KneeLeft
    {
      OFFSET -10.723062 -33.114352 5.797334
      CHANNELS 3 Zrotation Xrotation Yrotation
      JOINT AnkleLeft
      {
        OFFSET -2.858667 -24.114007 2.025772
        CHANNELS 3 Zrotation Xrotation Yrotation
        JOINT FootLeft
        {
          OFFSET 0.920584 0.065542 -0.212495
          CHANNELS 3 Zrotation Xrotation Yrotation
          End Site
          {
            OFFSET 0 0 0
          }
        }
      }
    }
  }
  JOINT HipRight
  {
    OFFSET -1.098528 1.394379 -6.419375
    CHANNELS 3 Zrotation Xrotation Yrotation
    JOINT KneeRight
    {
      OFFSET 11.201924 -25.207165 -1.889908
      CHANNELS 3 Zrotation Xrotation Yrotation
      JOINT AnkleRight
      {
        OFFSET -0.153369 -24.996109 6.250861
        CHANNELS 3 Zrotation Xrotation Yrotation
        JOINT FootRight
        {
          OFFSET 4.818023 -3.062765 1.915950
          CHANNELS 3 Zrotation Xrotation Yrotation
          End Site
          {
            OFFSET 0 0 0
          }
        }
      }
    }
  }
}
MOTION
Frames: 6
Frame Time: 0.033333
-23.216435 59.973244 318.707769 0.000000 0.000000 116.081325 -0.000000 0.000000 -116.081325 -0.000000 0.000000 0.000000 -0.000000 0.000000 0.000000 0.000000 0.000000 0.000000 -0.000000 0.000000 0.000000 -0.000000 0.000000 0.000000 -0.000000 0.000000 0.000000 -0.000000 0.000000 0.000000 0.000000 0.000000 0.000000 0.000000 0.000000 0.000000 -0.000000 0.000000 0.000000 -0.000000 0.000000 0.000000 -0.000000 0.000000 0.000000 -0.000000 0.000000 0.000000 0.000000 0.000000 0.000000 0.000000 0.000000 0.000000 -0.000000 0.000000 -116.081325 -0.000000 0.000000 0.000000 -0.000000 0.000000 0.000000 0.000000 0.000000 0.000000 -0.000000 0.000000 -116.081325 -0.000000 0.000000 0.000000 -0.000000 0.000000 0.000000 0.000000 0.000000 0.000000
-23.118523 60.332034 318.848272 0.050498 -0.089351 110.464405 0.101367 0.016071 -110.464380 -0.000000 0.000000 0.000000 -0.000000 0.000000 0.000000 0.000000 0.000000 0.000000 -2.082248 -2.584743 0.739745 -5.488230 -3.823313 0.567413 25.287532 14.049825 -2.735449 -20.926491 -4.065998 -5.590700 0.000000 0.000000 0.000000 0.000000 0.000000 0.000000 -0.000000 0.000000 0.000000 -0.000000 0.000000 0.000000 -1.947595 -5.614575 0.318091 0.139099 5.207845 -0.269940 0.000000 0.000000 0.000000 0.000000 0.000000 0.000000 -0.841548 -2.338935 -110.016878 -4.575221 0.750677 -0.699027 34.078380 9.960541 13.109168 0.000000 0.000000 0.000000 0.882166 1.239120 -110.230254 1.417556 -0.309761 -0.238846 -7.547243 6.289860 6.480911 0.000000 0.000000 0.000000
-23.047257 60.625716 318.965049 0.076096 -0.157708 104.557543 0.171772 0.034013 -104.557489 -0.000000 0.000000 0.000000 -0.000000 0.000000 0.000000 0.000000 0.000000 0.000000 -3.970070 -5.039236 1.335461 -11.510149 -8.195923 0.919186 47.717133 22.938744 -10.697426 -36.005104 -4.289821 -11.649686 0.000000 0.000000 0.000000 0.000000 0.000000 0.000000 -0.000000 0.000000 0.000000 -0.000000 0.000000 0.000000 -3.404656 -9.494269 0.428686 0.438959 8.979988 -0.430909 0.000000 0.000000 0.000000 0.000000 0.000000 0.000000 -0.979517 -4.057227 -103.817202 -7.579126 1.266085 -1.142668 40.082039 12.762579 17.729329 0.000000 0.000000 0.000000 1.348796 2.418025 -104.143486 3.544628 0.462988 -0.196971 -15.099809 10.664893 14.035038 0.000000 0.000000 0.000000
-23.002635 60.854290 319.058099 0.076132 -0.204276 98.657566 0.213409 0.044515 -98.657513 -0.000000 0.000000 0.000000 -0.000000 0.000000 0.000000 0.000000 0.000000 0.000000 -5.614743 -7.280694 1.790271 -17.520898 -12.643793 0.922904 67.448177 26.882637 -20.350344 -46.481993 -2.404569 -16.737453 0.000000 0.000000 0.000000 0.000000 0.000000 0.000000 0.045528 0.925361 -0.002004 0.521903 -0.315168 -0.199323 -5.037786 -12.660903 0.604757 0.855310 11.659357 -0.583479 0.000000 0.000000 0.000000 0.000000 0.000000 0.000000 -0.669870 -5.150590 -97.730825 -9.144758 1.510377 -1.377524 41.451135 14.416367 22.351883 0.000000 0.000000 0.000000 1.450832 3.449890 -98.105685 4.822210 0.638587 -0.257080 -19.615924 14.107495 21.788260 0.000000 0.000000 0.000000
-22.984658 61.017755 319.127422 0.050183 -0.228461 93.115702 0.230851 0.037691 -93.115678 -0.000000 0.000000 0.000000 -0.000000 0.000000 0.000000 0.000000 0.000000 0.000000 -6.976199 -9.238206 2.115740 -23.031802 -16.723152 0.592990 83.792554 27.371997 -29.162456 -53.846433 0.234565 -20.741530 0.000000 0.000000 0.000000 0.000000 0.000000 0.000000 0.037282 1.109559 0.004892 0.649156 -0.330888 -0.252361 -5.975312 -14.310070 0.611401 1.387470 13.495501 -0.774804 0.000000 0.000000 0.000000 0.000000 0.000000 0.000000 -0.159101 -5.611574 -92.099899 -9.343322 1.467652 -1.427331 40.260513 15.774075 28.131254 0.000000 0.000000 0.000000 1.279321 4.254765 -92.461021 5.777241 0.788939 -0.294446 -20.689715 16.274191 28.203521 0.000000 0.000000 0.000000
-22.993326 61.116111 319.173019 -0.001918 -0.229882 88.269105 0.229835 0.005026 -88.269119 -0.000000 0.000000 0.000000 -0.000000 0.000000 0.000000 0.000000 0.000000 0.000000 -8.024721 -10.857448 2.328596 -27.760965 -20.199463 0.042982 96.482331 26.033296 -36.001035 -59.135515 2.890061 -23.873032 0.000000 0.000000 0.000000 0.000000 0.000000 0.000000 0.017323 1.231875 0.015668 0.757149 -0.298487 -0.300990 -6.668212 -15.046436 0.605276 2.052408 14.654325 -1.027104 0.000000 0.000000 0.000000 0.000000 0.000000 0.000000 0.331809 -5.436832 -87.275316 -8.190549 1.135697 -1.292761 36.472415 16.842258 36.210542 0.000000 0.000000 0.000000 0.948412 4.778100 -87.546661 6.413714 0.919479 -0.310694 -18.325856 17.621533 32.605699 0.000000 0.000000 0.000000
